<?xml version="1.0" encoding="UTF-8" standalone="no"?>
<svg
   xmlns:dc="http://purl.org/dc/elements/1.1/"
   xmlns:cc="http://creativecommons.org/ns#"
   xmlns:rdf="http://www.w3.org/1999/02/22-rdf-syntax-ns#"
   xmlns:svg="http://www.w3.org/2000/svg"
   xmlns="http://www.w3.org/2000/svg"
   xmlns:sodipodi="http://sodipodi.sourceforge.net/DTD/sodipodi-0.dtd"
   xmlns:inkscape="http://www.inkscape.org/namespaces/inkscape"
   inkscape:version="1.0 (4035a4fb49, 2020-05-01)"
   sodipodi:docname="Pokeball.svg"
   id="svg865"
   version="1.1"
   fill="none"
   viewBox="0 0 780 780"
   height="780"
   width="780">
  <metadata
     id="metadata871">
    <rdf:RDF>
      <cc:Work
         rdf:about="">
        <dc:format>image/svg+xml</dc:format>
        <dc:type
           rdf:resource="http://purl.org/dc/dcmitype/StillImage" />
        <dc:title></dc:title>
      </cc:Work>
    </rdf:RDF>
  </metadata>
  <defs
     id="defs869" />
  <sodipodi:namedview
     inkscape:current-layer="svg865"
     inkscape:window-maximized="1"
     inkscape:window-y="-8"
     inkscape:window-x="1432"
     inkscape:cy="447.06504"
     inkscape:cx="247.20902"
     inkscape:zoom="0.7497145"
     showgrid="false"
     id="namedview867"
     inkscape:window-height="1017"
     inkscape:window-width="1920"
     inkscape:pageshadow="2"
     inkscape:pageopacity="0"
     guidetolerance="10"
     gridtolerance="10"
     objecttolerance="10"
     borderopacity="1"
     bordercolor="#666666"
     pagecolor="#ffffff" />
  <path
     id="path853"
     stroke-width="9.55238"
     stroke="white"
     d="M390.356 772.232C601.728 772.232 773.08 600.88 773.08 389.508C773.08 178.135 601.728 6.78406 390.356 6.78406C178.983 6.78406 7.63208 178.135 7.63208 389.508C7.63208 600.88 178.983 772.232 390.356 772.232Z" />
  <path
     id="path855"
     stroke-width="9.55238"
     stroke="white"
     d="M386.78 507.737C452.077 507.737 505.009 454.804 505.009 389.508C505.009 324.212 452.077 271.279 386.78 271.279C321.484 271.279 268.552 324.212 268.552 389.508C268.552 454.804 321.484 507.737 386.78 507.737Z" />
  <path
     id="path857"
     stroke-width="9.55238"
     stroke="white"
     d="M388.156 445.662C419.169 445.662 444.31 420.521 444.31 389.508C444.31 358.495 419.169 333.354 388.156 333.354C357.143 333.354 332.002 358.495 332.002 389.508C332.002 420.521 357.143 445.662 388.156 445.662Z" />
  <path
     id="path859"
     stroke-width="9.55238"
     stroke="white"
     d="M46.5386 361.715C53.5568 274.894 93.162 193.943 157.401 135.117C221.64 76.2907 305.756 43.9462 392.859 44.5782" />
  <path
     id="path861"
     stroke-width="6.68379"
     stroke="white"
     d="M385.86 271.28C360.738 271.476 336.331 279.669 316.179 294.672C296.028 309.674 281.179 330.706 273.787 354.716H9.44458V359.033H272.546C269.895 368.973 268.552 379.217 268.553 389.505C268.552 420.861 281.007 450.933 303.178 473.106C325.35 495.279 355.421 507.736 386.777 507.737C402.304 507.737 417.679 504.68 432.023 498.738C446.368 492.796 459.402 484.088 470.381 473.109C481.36 462.13 490.069 449.096 496.011 434.751C501.952 420.406 505.01 405.031 505.01 389.505C505.008 379.217 503.663 368.973 501.009 359.033H772.66V354.716H499.776C492.336 330.555 477.348 309.415 457.01 294.398C436.673 279.381 412.058 271.279 386.777 271.28C386.471 271.279 386.165 271.279 385.859 271.28H385.86Z" />
  <path
     id="path863"
     stroke-width="6.68379"
     stroke="white"
     d="M9.44458 408.621V412.938H270.899C270.609 411.504 270.345 410.065 270.109 408.621H9.44458ZM503.453 408.621C503.216 410.065 502.953 411.504 502.663 412.938H772.66V408.621H503.453Z" />
</svg>
