<?xml version="1.0" encoding="UTF-8" standalone="no"?>
<svg
   xmlns:dc="http://purl.org/dc/elements/1.1/"
   xmlns:cc="http://creativecommons.org/ns#"
   xmlns:rdf="http://www.w3.org/1999/02/22-rdf-syntax-ns#"
   xmlns:svg="http://www.w3.org/2000/svg"
   xmlns="http://www.w3.org/2000/svg"
   xmlns:sodipodi="http://sodipodi.sourceforge.net/DTD/sodipodi-0.dtd"
   xmlns:inkscape="http://www.inkscape.org/namespaces/inkscape"
   sodipodi:docname="Search.svg"
   inkscape:version="1.0 (4035a4fb49, 2020-05-01)"
   id="svg845"
   version="1.1"
   viewBox="0 0 8.4666665 8.4666669"
   height="32"
   width="32">
  <defs
     id="defs839" />
  <sodipodi:namedview
     inkscape:window-maximized="1"
     inkscape:window-y="-8"
     inkscape:window-x="1432"
     inkscape:window-height="1017"
     inkscape:window-width="1920"
     units="px"
     showgrid="false"
     inkscape:document-rotation="0"
     inkscape:current-layer="layer1"
     inkscape:document-units="mm"
     inkscape:cy="16.715739"
     inkscape:cx="17.066319"
     inkscape:zoom="17.026471"
     inkscape:pageshadow="2"
     inkscape:pageopacity="0.0"
     borderopacity="1.0"
     bordercolor="#666666"
     pagecolor="#ffffff"
     id="base" />
  <metadata
     id="metadata842">
    <rdf:RDF>
      <cc:Work
         rdf:about="">
        <dc:format>image/svg+xml</dc:format>
        <dc:type
           rdf:resource="http://purl.org/dc/dcmitype/StillImage" />
        <dc:title></dc:title>
      </cc:Work>
    </rdf:RDF>
  </metadata>
  <g
     id="layer1"
     inkscape:groupmode="layer"
     inkscape:label="Layer 1">
    <path
       transform="scale(0.26458333)"
       d="M 14.320312 0.95117188 A 13.254356 13.254356 0 0 0 1.0683594 14.205078 A 13.254356 13.254356 0 0 0 14.322266 27.458984 A 13.254356 13.254356 0 0 0 21.408203 25.404297 L 26.177734 30.173828 C 27.236083 31.232177 28.9397 31.232175 29.998047 30.173828 C 31.056394 29.115481 31.056395 27.411864 29.998047 26.353516 L 25.291016 21.646484 A 13.254356 13.254356 0 0 0 27.576172 14.205078 A 13.254356 13.254356 0 0 0 14.322266 0.95117188 A 13.254356 13.254356 0 0 1 14.320312 0.95117188 z "
       style="opacity:1;fill:none;stroke:#000000;stroke-width:1.6737;stop-color:#000000"
       id="path1408" />
    <ellipse
       ry="2.7166617"
       rx="2.7477407"
       style="opacity:1;fill:none;stroke:#000000;stroke-width:0.345005;stop-color:#000000"
       id="circle1415"
       cx="3.7895489"
       cy="3.758471" />
  </g>
</svg>
